<svg xmlns="http://www.w3.org/2000/svg" width="256" height="256" viewBox="0 0 256 256"><g fill="none" fill-rule="evenodd"><path fill="#342D34" d="M497.109762,240.13 L505.595043,248.615281 L248.915281,505.295043 L240.43,496.809762 L497.109762,240.13 Z M496.797839,192.441923 L505.28312,200.927204 L201.227204,504.98312 L192.741923,496.497839 L496.797839,192.441923 Z M496.253661,0.986021022 L504.738942,9.4713024 L9.76419562,504.446049 L1.27891424,495.960768 L496.253661,0.986021022 Z M496.215624,49.0241379 L504.700905,57.5094193 L57.8094193,504.400905 L49.3241379,495.915624 L496.215624,49.0241379 Z M496.173993,97.0657685 L504.659274,105.55105 L105.85105,504.359274 L97.3657685,495.873993 L496.173993,97.0657685 Z M496.132363,145.107399 L504.617644,153.59268 L153.89268,504.317644 L145.407399,495.832363 L496.132363,145.107399 Z M448.215624,1.02413793 L456.700905,9.5094193 L9.8094193,456.400905 L1.32413793,447.915624 L448.215624,1.02413793 Z M399.743993,0.935768491 L408.229274,9.42104986 L9.42104986,408.229274 L0.935768491,399.743993 L399.743993,0.935768491 Z M351.702363,0.977399051 L360.187644,9.46268043 L9.46268043,360.187644 L0.977399051,351.702363 L351.702363,0.977399051 Z M304.367839,0.31192283 L312.85312,8.7972042 L8.7972042,312.85312 L0.31192283,304.367839 L304.367839,0.31192283 Z M256.679762,0 L265.165043,8.48528137 L8.48528137,265.165043 L5.68434189e-14,256.679762 L256.679762,0 Z" transform="translate(-133 -139)"/><rect width="160" height="242" x="49" y="8" fill="#FFF"/><path fill="#342D34" d="M213,0 L213,256 L43,256 L43,0 L213,0 Z M196,12 L60,12 C57.2385763,12 55,14.2385763 55,17 L55,239 C55,241.761424 57.2385763,244 60,244 L196,244 C198.761424,244 201,241.761424 201,239 L201,17 C201,14.2385763 198.761424,12 196,12 Z"/></g></svg>