<svg xmlns="http://www.w3.org/2000/svg" width="256" height="256" viewBox="0 0 256 256"><g fill="none" fill-rule="evenodd"><path fill="#342D34" d="M244,0 C250.627417,-1.21743675e-15 256,5.372583 256,12 L256,244 C256,250.627417 250.627417,256 244,256 L12,256 C5.372583,256 8.11624501e-16,250.627417 0,244 L0,12 C-8.11624501e-16,5.372583 5.372583,1.21743675e-15 12,0 L244,0 Z M239,12 L17,12 C14.2385763,12 12,14.2385763 12,17 L12,239 C12,241.761424 14.2385763,244 17,244 L239,244 C241.761424,244 244,241.761424 244,239 L244,17 C244,14.2385763 241.761424,12 239,12 Z"/><path fill="#FFF" stroke="#342D34" stroke-width="12" d="M232,26 L232,60 L24,60 L24,26 L232,26 Z"/><path fill="#342D34" d="M234,88 C236.209139,88 238,89.790861 238,92 L238,164 C238,166.209139 236.209139,168 234,168 L22,168 C19.790861,168 18,166.209139 18,164 L18,92 C18,89.790861 19.790861,88 22,88 L234,88 Z M221,100 L35,100 C32.2385763,100 30,102.238576 30,105 L30,151 C30,153.761424 32.2385763,156 35,156 L221,156 C223.761424,156 226,153.761424 226,151 L226,105 C226,102.238576 223.761424,100 221,100 Z"/><path fill="#FFF" stroke="#342D34" stroke-width="12" d="M232,198 L232,232 L24,232 L24,198 L232,198 Z" transform="rotate(-180 128 215)"/></g></svg>