<svg xmlns="http://www.w3.org/2000/svg" width="256" height="256" viewBox="0 0 256 256"><g fill="none" fill-rule="evenodd"><path fill="#FFF" stroke="#342D34" stroke-width="12" d="M71,6 L71,71 L6,71 L6,12 C6,10.3431458 6.67157288,8.84314575 7.75735931,7.75735931 C8.84314575,6.67157288 10.3431458,6 12,6 L71,6 Z"/><rect width="65" height="65" x="6" y="96" fill="#FFF" stroke="#342D34" stroke-width="12"/><path fill="#FFF" stroke="#342D34" stroke-width="12" d="M71,185 L71,250 L12,250 C10.3431458,250 8.84314575,249.328427 7.75735931,248.242641 C6.67157288,247.156854 6,245.656854 6,244 L6,185 L71,185 Z"/><rect width="65" height="65" x="96" y="6" fill="#FFF" stroke="#342D34" stroke-width="12"/><rect width="65" height="65" x="96" y="96" fill="#FFF" stroke="#342D34" stroke-width="12"/><path fill="#FFF" stroke="#342D34" stroke-width="12" d="M244,6 C245.656854,6 247.156854,6.67157288 248.242641,7.75735931 C249.328427,8.84314575 250,10.3431458 250,12 L250,71 L185,71 L185,6 Z"/><rect width="65" height="65" x="185" y="96" fill="#FFF" stroke="#342D34" stroke-width="12"/><path fill="#342D34" d="M172.321,178.999957 L95.321,255.999957 L90,256 L90,244.348957 L155.349,178.999957 L172.321,178.999957 Z M220.32,178.999957 L143.32,255.999957 L126.35,255.999957 L203.35,178.999957 L220.32,178.999957 Z M256,179 L256,191.320957 L191.321,255.999957 L174.349,255.999957 L251.349,178.999957 L256,179 Z M256,222.348957 L256,239.320957 L239.321,255.999957 L222.349,255.999957 L256,222.348957 Z M124.32,178.999957 L90,213.319957 L90,196.349957 L107.35,178.999957 L124.32,178.999957 Z"/></g></svg>