<svg xmlns="http://www.w3.org/2000/svg" width="256" height="256" viewBox="0 0 256 256"><g fill="none" fill-rule="evenodd"><path fill="#FFF" stroke="#342D34" stroke-width="12" d="M35,13.4164079 L60.2917961,64 L9.70820393,64 L35,13.4164079 Z"/><circle cx="35" cy="221" r="29" fill="#FFF" stroke="#342D34" stroke-width="12"/><path fill="#FFF" stroke="#342D34" stroke-width="12" d="M35,100.416408 L61.233555,119.476201 L51.2132287,150.315595 L18.7867713,150.315595 L8.76644496,119.476201 L35,100.416408 Z"/><path fill="#342D34" d="M158.759957 9.99995706 108.759957 59.9999571 91.7899571 59.9999571 141.789957 9.99995706 158.759957 9.99995706ZM206.760957 9.99995706 156.760957 59.9999571 139.788957 59.9999571 189.788957 9.99995706 206.760957 9.99995706ZM217.999957 30.3499571 217.999957 47.3199571 205.319957 59.9999571 188.349957 59.9999571 217.999957 30.3499571ZM110.760957 9.99995706 81.9999571 38.7609571 81.9999571 21.7889571 93.7889571 9.99995706 110.760957 9.99995706ZM153.759957 102.999957 103.759957 152.999957 86.7899571 152.999957 136.789957 102.999957 153.759957 102.999957ZM201.760957 102.999957 151.760957 152.999957 134.788957 152.999957 184.788957 102.999957 201.760957 102.999957ZM250.319957 102.999957 200.319957 152.999957 183.349957 152.999957 233.349957 102.999957 250.319957 102.999957ZM255.999957 128.349957 255.999957 145.319957 248.319957 152.999957 231.349957 152.999957 255.999957 128.349957ZM105.760957 102.999957 81.9999571 126.760957 81.9999571 109.788957 88.7889571 102.999957 105.760957 102.999957ZM172.759957 195.999957 122.759957 245.999957 105.789957 245.999957 155.789957 195.999957 172.759957 195.999957ZM186.999957 212.788957 186.999957 229.760957 170.760957 245.999957 153.788957 245.999957 186.999957 212.788957ZM124.760957 195.999957 81.9999571 238.760957 81.9999571 221.788957 107.788957 195.999957 124.760957 195.999957Z"/></g></svg>