<svg xmlns="http://www.w3.org/2000/svg" width="256" height="256" viewBox="0 0 256 256"><g fill="none" fill-rule="evenodd"><rect width="85" height="245" x="5" y="5" fill="#FFF"/><rect width="134" height="245" x="115" y="5" fill="#FFF"/><path fill="#342D34" d="M244 0C250.627417-1.21743675e-15 256 5.372583 256 12L256 244C256 250.627417 250.627417 256 244 256L108 256 108 0 244 0ZM240 12 124 12C121.790861 12 120 13.790861 120 16L120 240C120 242.209139 121.790861 244 124 244L240 244C242.209139 244 244 242.209139 244 240L244 16C244 13.790861 242.209139 12 240 12ZM96 0 96 256 12 256C5.372583 256 8.11624501e-16 250.627417 0 244L0 12C-8.11624501e-16 5.372583 5.372583 1.21743675e-15 12 0L96 0ZM80 12 16 12C13.790861 12 12 13.790861 12 16L12 240C12 242.209139 13.790861 244 16 244L80 244C82.209139 244 84 242.209139 84 240L84 16C84 13.790861 82.209139 12 80 12Z"/><path fill="#342D34" d="M78,164.24 L78,181.21 L21.21,238 L18,238 L18,224.24 L78,164.24 Z M78,212.239 L78,229.211 L69.211,238 L52.239,238 L78,212.239 Z M78,116.239 L78,133.211 L18,193.211 L18,176.239 L78,116.239 Z M78,68.24 L78,85.21 L18,145.21 L18,128.24 L78,68.24 Z M78,19.679 L78,36.651 L18,96.651 L18,79.679 L78,19.679 Z M48.65,18 L18,48.65 L18,31.68 L31.68,18 L48.65,18 Z"/></g></svg>