<svg xmlns="http://www.w3.org/2000/svg" width="256" height="256" viewBox="0 0 256 256"><g fill="none" fill-rule="evenodd"><path fill="#FFF" stroke="#342D34" stroke-width="12" d="M250,214 L250,244 C250,245.656854 249.328427,247.156854 248.242641,248.242641 C247.156854,249.328427 245.656854,250 244,250 L12,250 C10.3431458,250 8.84314575,249.328427 7.75735931,248.242641 C6.67157288,247.156854 6,245.656854 6,244 L6,214 L250,214 Z"/><path stroke="#342D34" stroke-width="12" d="M250,6 L250,208 C250,209.656854 249.328427,211.156854 248.242641,212.242641 C247.156854,213.328427 245.656854,214 244,214 L12,214 C10.3431458,214 8.84314575,213.328427 7.75735931,212.242641 C6.67157288,211.156854 6,209.656854 6,208 L6,6 L250,6 Z" transform="rotate(-180 128 110)"/><rect width="73.333" height="12" x="18" y="226" fill="#342D34"/><rect width="74" height="172" x="24" y="24" fill="#FFF" stroke="#342D34" stroke-width="12" rx="4"/><rect width="74" height="172" x="122" y="24" fill="#FFF" stroke="#342D34" stroke-width="12" rx="4"/><rect width="30" height="172" x="220" y="24" fill="#FFF" stroke="#342D34" stroke-width="12" rx="4"/></g></svg>