<svg xmlns="http://www.w3.org/2000/svg" width="256" height="256" viewBox="0 0 256 256"><g fill="none" fill-rule="evenodd"><path fill="#FFF" stroke="#342D34" stroke-width="12" d="M244,6 C245.656854,6 247.156854,6.67157288 248.242641,7.75735931 C249.328427,8.84314575 250,10.3431458 250,12 L250,64 L6,64 L6,12 C6,10.3431458 6.67157288,8.84314575 7.75735931,7.75735931 C8.84314575,6.67157288 10.3431458,6 12,6 Z"/><rect width="244" height="58" x="6" y="99" fill="#FFF" stroke="#342D34" stroke-width="12"/><path fill="#FFF" stroke="#342D34" stroke-width="12" d="M250,192 L250,244 C250,245.656854 249.328427,247.156854 248.242641,248.242641 C247.156854,249.328427 245.656854,250 244,250 L12,250 C10.3431458,250 8.84314575,249.328427 7.75735931,248.242641 C6.67157288,247.156854 6,245.656854 6,244 L6,192 L250,192 Z"/></g></svg>