<svg xmlns="http://www.w3.org/2000/svg" width="256" height="256" viewBox="0 0 256 256"><g fill="none" fill-rule="evenodd"><rect width="243" height="242" x="7" y="7" fill="#FFF"/><path fill="#342D34" d="M244,0 C250.627417,-1.21743675e-15 256,5.372583 256,12 L256,244 C256,250.627417 250.627417,256 244,256 L12,256 C5.372583,256 8.11624501e-16,250.627417 0,244 L0,12 C-8.11624501e-16,5.372583 5.372583,1.21743675e-15 12,0 L244,0 Z M239,12 L17,12 C14.2385763,12 12,14.2385763 12,17 L12,239 C12,241.761424 14.2385763,244 17,244 L239,244 C241.761424,244 244,241.761424 244,239 L244,17 C244,14.2385763 241.761424,12 239,12 Z"/><path fill="#342D34" d="M230.413793,18 C234.603539,18 238,21.3964605 238,25.5862069 L237.999,26.211 L26.211,238 L25.5862069,238 C21.3964605,238 18,234.603539 18,230.413793 L17.999,229.24 L229.24,18 L230.413793,18 Z M237.999,57.241 L237.999,74.211 L74.21,238 L57.24,238 L237.999,57.241 Z M237.999,105.24 L237.999,122.212 L122.211,238 L105.239,238 L237.999,105.24 Z M237.999,153.24 L237.999,170.21 L170.209,238 L153.239,238 L237.999,153.24 Z M237.999,201.239 L237.999,218.211 L218.21,238 L201.238,238 L237.999,201.239 Z M198.21,18 L17.999,198.211 L17.999,181.241 L181.24,18 L198.21,18 Z M149.651,18 L17.999,149.652 L17.999,132.68 L132.679,18 L149.651,18 Z M101.65,18 L17.999,101.651 L17.999,84.681 L84.68,18 L101.65,18 Z M53.651,18 L17.999,53.652 L17.999,36.68 L36.679,18 L53.651,18 Z"/></g></svg>