<svg xmlns="http://www.w3.org/2000/svg" width="256" height="256" viewBox="0 0 256 256"><g fill="none" fill-rule="evenodd"><rect width="213" height="213" x="22" y="21" fill="#FFF" stroke="#342D34" stroke-width="12"/><path fill="#342D34" d="M235,21 L235,28.32 L29.321,234 L22,234 L22,224.349 L225.349,21 L235,21 Z M235,59.35 L235,76.32 L77.32,234 L60.35,234 L235,59.35 Z M235,107.349 L235,124.321 L125.321,234 L108.349,234 L235,107.349 Z M235,155.35 L235,172.32 L173.319,234 L156.349,234 L235,155.35 Z M235,203.348 L235,220.32 L221.32,234 L204.348,234 L235,203.348 Z M194.32,21 L22,193.32 L22,176.35 L177.35,21 L194.32,21 Z M145.761,21 L22,144.761 L22,127.789 L128.789,21 L145.761,21 Z M97.76,21 L22,96.76 L22,79.79 L80.79,21 L97.76,21 Z M49.761,21 L22,48.761 L22,31.789 L32.789,21 L49.761,21 Z"/><path fill="#FFF" stroke="#342D34" stroke-width="12" d="M250,182.485281 L250,244 C250,245.656854 249.328427,247.156854 248.242641,248.242641 C247.156854,249.328427 245.656854,250 244,250 L182.485281,250 L250,182.485281 Z"/><path fill="#FFF" stroke="#342D34" stroke-width="12" d="M82,182.485281 L82,244 C82,245.656854 81.3284271,247.156854 80.2426407,248.242641 C79.1568542,249.328427 77.6568542,250 76,250 L14.4852814,250 L82,182.485281 Z" transform="rotate(90 44 212)"/><path fill="#FFF" stroke="#342D34" stroke-width="12" d="M82,14.4852814 L82,76 C82,77.6568542 81.3284271,79.1568542 80.2426407,80.2426407 C79.1568542,81.3284271 77.6568542,82 76,82 L14.4852814,82 L82,14.4852814 Z" transform="rotate(180 44 44)"/><path fill="#FFF" stroke="#342D34" stroke-width="12" d="M250,14.4852814 L250,76 C250,77.6568542 249.328427,79.1568542 248.242641,80.2426407 C247.156854,81.3284271 245.656854,82 244,82 L182.485281,82 L250,14.4852814 Z" transform="rotate(-90 212 44)"/></g></svg>