<svg xmlns="http://www.w3.org/2000/svg" width="256" height="256" viewBox="0 0 256 256"><g fill="none" fill-rule="evenodd"><path fill="#FFF" stroke="#342D34" stroke-width="12" d="M71,6 L71,48 L6,48 L6,12 C6,10.3431458 6.67157288,8.84314575 7.75735931,7.75735931 C8.84314575,6.67157288 10.3431458,6 12,6 L71,6 Z"/><rect width="113" height="30" x="72" y="119" fill="#FFF" stroke="#342D34" stroke-width="12"/><rect width="113" height="30" x="72" y="169" fill="#FFF" stroke="#342D34" stroke-width="12"/><path fill="#FFF" stroke="#342D34" stroke-width="12" d="M185 220 185 244C185 245.656854 184.328427 247.156854 183.242641 248.242641 182.156854 249.328427 180.656854 250 179 250L78 250C76.3431458 250 74.8431458 249.328427 73.7573593 248.242641 72.6715729 247.156854 72 245.656854 72 244L72 220 185 220ZM244 6C245.656854 6 247.156854 6.67157288 248.242641 7.75735931 249.328427 8.84314575 250 10.3431458 250 12L250 48 185 48 185 6Z"/><rect width="65" height="42" x="96" y="6" fill="#FFF" stroke="#342D34" stroke-width="12"/><path stroke="#342D34" stroke-width="6" d="M122.5,106.5 L122.5,67.5 L111,80"/><path stroke="#342D34" stroke-width="6" d="M145.5,99.5 L145.5,60.5 L134,73" transform="rotate(-180 139.75 80)"/></g></svg>