<?xml version="1.0" encoding="UTF-8"?>
<svg xmlns="http://www.w3.org/2000/svg" xmlns:xlink="http://www.w3.org/1999/xlink">
<symbol id="check" viewBox="0 0 64 64">
<g stroke="none" stroke-width="1" fill="none" fill-rule="evenodd">
<polygon fill="currentColor" fill-rule="nonzero" points="56.4853489 7.5 64 15.0614617 60.2426744 18.8421925 22.8179942 56.5 19.0606686 52.7192692 3.75732557 37.320598 0 33.5398671 7.51465114 25.9784054 11.2719767 29.7591363 22.8179942 41.3777908 52.7280233 11.2807308"></polygon>
</g>
</symbol>
<symbol id="add" viewBox="0 0 64 64">
<g stroke="none" stroke-width="1" fill="none" fill-rule="evenodd">
<rect fill="currentColor" x="26" y="0" width="12" height="64"></rect>
<rect fill="currentColor" transform="translate(32, 32) rotate(90) translate(-32, -32)" x="26" y="0" width="12" height="64"></rect>
</g>
</symbol>
<symbol id="cross" viewBox="0 0 64 64">
<g stroke="none" stroke-width="1" fill="none" fill-rule="evenodd">
<rect fill="currentColor" transform="translate(32, 32) rotate(45) translate(-32, -32)" x="26" y="-7" width="12" height="78"></rect>
<rect fill="currentColor" transform="translate(32, 32) rotate(135) translate(-32, -32)" x="26" y="-7" width="12" height="78"></rect>
</g>
</symbol>
<symbol id="up" viewBox="0 0 64 64">
<g stroke="none" stroke-width="1" fill="none" fill-rule="evenodd">
<polygon fill="currentColor" fill-rule="nonzero" points="32 1 35.6412358 4.64123582 60.3587642 29.3587642 64 33 56.7175284 40.2824716 37.1491555 20.713411 37.1494851 62.8670134 26.8505149 62.8670134 26.8498558 20.713411 10.9237075 36.6412358 7.28247163 40.2824716 0 33"></polygon>
</g>
</symbol>
<symbol id="down" viewBox="0 0 64 64">
<g stroke="none" stroke-width="1" fill="none" fill-rule="evenodd">
<polygon fill="currentColor" fill-rule="nonzero" transform="translate(32, 31.9335) rotate(180) translate(-32, -31.9335)" points="32 1 35.6412358 4.64123582 60.3587642 29.3587642 64 33 56.7175284 40.2824716 37.1491555 20.713411 37.1494851 62.8670134 26.8505149 62.8670134 26.8498558 20.713411 10.9237075 36.6412358 7.28247163 40.2824716 7.10542736e-15 33"></polygon>
</g>
</symbol>
<symbol id="minus" viewBox="0 0 64 64">
<g stroke="none" stroke-width="1" fill="none" fill-rule="evenodd">
<rect fill="currentColor" fill-rule="nonzero" x="0" y="26" width="64" height="12"></rect>
</g>
</symbol>
<symbol id="right" viewBox="0 0 64 64">
<g stroke="none" stroke-width="1" fill="none" fill-rule="evenodd">
<polygon fill="currentColor" fill-rule="nonzero" transform="translate(32, 31.9335) rotate(90) translate(-32, -31.9335)" points="32 1 35.6412358 4.64123582 60.3587642 29.3587642 64 33 56.7175284 40.2824716 37.1491555 20.713411 37.1494851 62.8670134 26.8505149 62.8670134 26.8498558 20.713411 10.9237075 36.6412358 7.28247163 40.2824716 0 33"></polygon>
</g>
</symbol>
<symbol id="left" viewBox="0 0 64 64">
<g stroke="none" stroke-width="1" fill="none" fill-rule="evenodd">
<polygon fill="currentColor" fill-rule="nonzero" transform="translate(32, 31.9335) rotate(270) translate(-32, -31.9335)" points="32 1 35.6412358 4.64123582 60.3587642 29.3587642 64 33 56.7175284 40.2824716 37.1491555 20.713411 37.1494851 62.8670134 26.8505149 62.8670134 26.8498558 20.713411 10.9237075 36.6412358 7.28247163 40.2824716 0 33"></polygon>
</g>
</symbol>
<symbol id="menu" viewBox="0 0 64 64">
<g stroke="none" stroke-width="1" fill="none" fill-rule="evenodd">
<rect fill="currentColor" x="0" y="10" width="64" height="9"></rect>
<rect fill="currentColor" x="0" y="28" width="64" height="9"></rect>
<rect fill="currentColor" x="0" y="46" width="64" height="9"></rect>
</g>
</symbol>
<symbol id="download" viewBox="0 0 24 24" fill="none" stroke="currentColor" stroke-width="2.5" stroke-linecap="square" stroke-linejoin="bevel"><path d="M3 15v4c0 1.1.9 2 2 2h14a2 2 0 0 0 2-2v-4M17 9l-5 5-5-5M12 12.8V2.5"/></symbol>
<symbol id="internal" viewBox="0 0 24 24" fill="none" stroke="currentColor" stroke-width="2.5" stroke-linecap="square" stroke-linejoin="bevel"><line x1="4" y1="21" x2="4" y2="14"></line><line x1="4" y1="10" x2="4" y2="3"></line><line x1="12" y1="21" x2="12" y2="12"></line><line x1="12" y1="8" x2="12" y2="3"></line><line x1="20" y1="21" x2="20" y2="16"></line><line x1="20" y1="12" x2="20" y2="3"></line><line x1="1" y1="14" x2="7" y2="14"></line><line x1="9" y1="8" x2="15" y2="8"></line><line x1="17" y1="16" x2="23" y2="16"></line></symbol>
<symbol id="layouts" viewBox="0 0 24 24" fill="none" stroke="currentColor" stroke-width="2.5" stroke-linecap="square" stroke-linejoin="bevel"><rect x="3" y="3" width="18" height="18" rx="2"/><path d="M3 9h18M9 21V9"/></symbol>
<symbol id="forms" viewBox="0 0 24 24" fill="none" stroke="currentColor" stroke-width="2.5" stroke-linecap="square" stroke-linejoin="bevel"><path d="M14 2H6a2 2 0 0 0-2 2v16c0 1.1.9 2 2 2h12a2 2 0 0 0 2-2V8l-6-6z"/><path d="M14 3v5h5M16 13H8M16 17H8M10 9H8"/></symbol>
<symbol id="question" viewBox="0 0 24 24" fill="none" stroke="currentColor" stroke-width="2.5" stroke-linecap="square" stroke-linejoin="bevel"><circle cx="12" cy="12" r="10"></circle><path d="M9.09 9a3 3 0 0 1 5.83 1c0 2-3 3-3 3"></path><line x1="12" y1="17" x2="12.01" y2="17"></line></symbol>
<symbol id="info" viewBox="0 0 24 24" fill="none" stroke="currentColor" stroke-width="2.5" stroke-linecap="square" stroke-linejoin="bevel"><circle cx="12" cy="12" r="10"></circle><line x1="12" y1="16" x2="12" y2="12"></line><line x1="12" y1="8" x2="12.01" y2="8"></line></symbol> 
</svg>
