<svg xmlns="http://www.w3.org/2000/svg" xmlns:xlink="http://www.w3.org/1999/xlink">
  <symbol viewBox="0 0 64 64" id="add" fill="currentColor"><path d="M32.5 0c2.8589 0 5.2083 2.2396 5.4748 5.1032L38 5.6471v52.7058C38 61.4717 35.5376 64 32.5 64c-2.8589 0-5.2083-2.2396-5.4748-5.1032L27 58.3529V5.6471C27 2.5283 29.4624 0 32.5 0Z"/><path d="M58.353 27C61.4716 27 64 29.4624 64 32.5c0 2.8589-2.2396 5.2083-5.1032 5.4748L58.3529 38H5.6471C2.5283 38 0 35.5376 0 32.5c0-2.8589 2.2396-5.2083 5.1032-5.4748L5.6471 27h52.7058Z"/></symbol>
  <symbol viewBox="0 0 64 64" id="cross" fill="currentColor"><path d="m10.4394 1.4352.486.4393L32 22.949 53.0745 1.8745c2.4994-2.4993 6.5516-2.4993 9.051 0 2.3431 2.3432 2.4896 6.0512.4393 8.565l-.4393.486L41.051 32l21.0745 21.0745c2.4993 2.4994 2.4993 6.5516 0 9.051-2.3432 2.3431-6.0512 2.4896-8.565.4393l-.486-.4393L32 41.051 10.9255 62.1255c-2.4994 2.4993-6.5516 2.4993-9.051 0-2.3431-2.3432-2.4896-6.0512-.4393-8.565l.4393-.486L22.949 32 1.8745 10.9255c-2.4993-2.4994-2.4993-6.5516 0-9.051 2.3432-2.3431 6.0512-2.4896 8.565-.4393Z"/></symbol>
  <symbol viewBox="0 0 64 64" id="down" fill="currentColor"><path d="M32 0c2.9353 0 5.3476 2.2396 5.6212 5.1032l.0259.5439v39.0738l16.7128-16.714c2.2053-2.2053 5.7808-2.2053 7.9861 0 2.0675 2.0675 2.1967 5.3393.3877 7.5573l-.3877.4289-26.353 26.353c-2.0674 2.0674-5.3392 2.1966-7.5572.3876l-.4289-.3877L1.654 35.993c-2.2052-2.2052-2.2052-5.7808 0-7.986 2.0676-2.0676 5.3393-2.1968 7.5573-.3877l.429.3876 16.7127 16.714V5.6471C26.353 2.5283 28.8812 0 32 0Z"/></symbol>
  <symbol viewBox="0 0 64 64" id="left" fill="currentColor"><path d="M35.993 1.654c2.0676 2.0675 2.1968 5.3392.3877 7.5572l-.3876.429-16.714 16.7127h39.0738C61.4717 26.353 64 28.8812 64 32c0 2.9353-2.2396 5.3476-5.1032 5.6212l-.5439.0259H19.2791l16.714 16.7128c2.0675 2.0674 2.1967 5.3392.3876 7.5572l-.3876.429c-2.0675 2.0674-5.3393 2.1966-7.5573.3876l-.4289-.3877L1.654 35.993c-2.0674-2.0674-2.1966-5.3392-.3876-7.5572l.3877-.4289L28.007 1.654c2.2052-2.2052 5.7808-2.2052 7.986 0Z"/></symbol>
  <symbol viewBox="0 0 64 64" id="menu" fill="currentColor"><path d="M59.4286 28C61.9533 28 64 30.0147 64 32.5c0 2.339-1.813 4.2613-4.1312 4.4794L59.4286 37H4.5714C2.0467 37 0 34.9853 0 32.5c0-2.339 1.813-4.2613 4.1312-4.4794L4.5714 28h54.8572Zm0-18C61.9533 10 64 12.0147 64 14.5c0 2.339-1.813 4.2613-4.1312 4.4794L59.4286 19H4.5714C2.0467 19 0 16.9853 0 14.5c0-2.339 1.813-4.2613 4.1312-4.4794L4.5714 10h54.8572Zm0 36C61.9533 46 64 48.0147 64 50.5c0 2.339-1.813 4.2613-4.1312 4.4794L59.4286 55H4.5714C2.0467 55 0 52.9853 0 50.5c0-2.339 1.813-4.2613 4.1312-4.4794L4.5714 46h54.8572Z"/></symbol>
  <symbol viewBox="0 0 64 64" id="minus" fill="currentColor"><path d="M58.353 27C61.4716 27 64 29.4624 64 32.5c0 2.8589-2.2396 5.2083-5.1032 5.4748L58.3529 38H5.6471C2.5283 38 0 35.5376 0 32.5c0-2.8589 2.2396-5.2083 5.1032-5.4748L5.6471 27h52.7058Z"/></symbol>
  <symbol viewBox="0 0 64 64" id="right" fill="currentColor"><path d="m35.5642 1.2663.4289.3877 26.353 26.353c2.0674 2.0674 2.1966 5.3392.3876 7.5572l-.3877.4289-26.353 26.353c-2.2052 2.2052-5.7808 2.2052-7.986 0-2.0676-2.0676-2.1968-5.3393-.3877-7.5573l.3876-.429 16.714-16.7127H5.6471C2.5283 37.647 0 35.1188 0 32c0-2.9353 2.2396-5.3476 5.1032-5.6212l.5439-.0259h39.0738L28.007 9.6401c-2.0675-2.0674-2.1967-5.3392-.3876-7.5572l.3876-.429c1.9297-1.9296 4.9084-2.1708 7.1003-.7235l.457.336Z"/></symbol>
  <symbol viewBox="0 0 64 64" id="up" fill="currentColor"><path d="m35.5642 1.2663.4289.3877 26.353 26.353c2.2052 2.2052 2.2052 5.7808 0 7.986-2.0676 2.0676-5.3393 2.1968-7.5573.3877l-.429-.3876-16.7127-16.714v39.0738C37.647 61.4717 35.1188 64 32 64c-2.9353 0-5.3476-2.2396-5.6212-5.1032l-.0259-.5439V19.2791L9.6401 35.993c-2.0674 2.0675-5.3392 2.1967-7.5572.3876l-.429-.3876c-2.0674-2.0675-2.1966-5.3393-.3876-7.5573l.3877-.4289L28.007 1.654c1.9296-1.9296 4.9083-2.1708 7.1002-.7235l.457.336Z"/></symbol>
</svg>