<?xml version="1.0" encoding="UTF-8"?>
<svg xmlns="http://www.w3.org/2000/svg" xmlns:xlink="http://www.w3.org/1999/xlink">
<symbol id="check" viewBox="0 0 64 64">
<g stroke="none" stroke-width="1" fill="none" fill-rule="evenodd">
<polygon fill="currentColor" fill-rule="nonzero" points="56.4853489 7.5 64 15.0614617 60.2426744 18.8421925 22.8179942 56.5 19.0606686 52.7192692 3.75732557 37.320598 0 33.5398671 7.51465114 25.9784054 11.2719767 29.7591363 22.8179942 41.3777908 52.7280233 11.2807308"></polygon>
</g>
</symbol>
<symbol id="add" viewBox="0 0 64 64">
<g stroke="none" stroke-width="1" fill="none" fill-rule="evenodd">
<rect fill="currentColor" x="26" y="0" width="12" height="64"></rect>
<rect fill="currentColor" transform="translate(32, 32) rotate(90) translate(-32, -32)" x="26" y="0" width="12" height="64"></rect>
</g>
</symbol>
<symbol id="cross" viewBox="0 0 64 64">
<g stroke="none" stroke-width="1" fill="none" fill-rule="evenodd">
<rect fill="currentColor" transform="translate(32, 32) rotate(45) translate(-32, -32)" x="26" y="-7" width="12" height="78"></rect>
<rect fill="currentColor" transform="translate(32, 32) rotate(135) translate(-32, -32)" x="26" y="-7" width="12" height="78"></rect>
</g>
</symbol>
<symbol id="up" viewBox="0 0 64 64">
<g stroke="none" stroke-width="1" fill="none" fill-rule="evenodd">
<polygon fill="currentColor" fill-rule="nonzero" points="32 1 35.6412358 4.64123582 60.3587642 29.3587642 64 33 56.7175284 40.2824716 37.1491555 20.713411 37.1494851 62.8670134 26.8505149 62.8670134 26.8498558 20.713411 10.9237075 36.6412358 7.28247163 40.2824716 0 33"></polygon>
</g>
</symbol>
<symbol id="down" viewBox="0 0 64 64">
<g stroke="none" stroke-width="1" fill="none" fill-rule="evenodd">
<polygon fill="currentColor" fill-rule="nonzero" transform="translate(32, 31.9335) rotate(180) translate(-32, -31.9335)" points="32 1 35.6412358 4.64123582 60.3587642 29.3587642 64 33 56.7175284 40.2824716 37.1491555 20.713411 37.1494851 62.8670134 26.8505149 62.8670134 26.8498558 20.713411 10.9237075 36.6412358 7.28247163 40.2824716 7.10542736e-15 33"></polygon>
</g>
</symbol>
<symbol id="minus" viewBox="0 0 64 64">
<g stroke="none" stroke-width="1" fill="none" fill-rule="evenodd">
<rect fill="currentColor" fill-rule="nonzero" x="0" y="26" width="64" height="12"></rect>
</g>
</symbol>
<symbol id="right" viewBox="0 0 64 64">
<g stroke="none" stroke-width="1" fill="none" fill-rule="evenodd">
<polygon fill="currentColor" fill-rule="nonzero" transform="translate(32, 31.9335) rotate(90) translate(-32, -31.9335)" points="32 1 35.6412358 4.64123582 60.3587642 29.3587642 64 33 56.7175284 40.2824716 37.1491555 20.713411 37.1494851 62.8670134 26.8505149 62.8670134 26.8498558 20.713411 10.9237075 36.6412358 7.28247163 40.2824716 0 33"></polygon>
</g>
</symbol>
<symbol id="left" viewBox="0 0 64 64">
<g stroke="none" stroke-width="1" fill="none" fill-rule="evenodd">
<polygon fill="currentColor" fill-rule="nonzero" transform="translate(32, 31.9335) rotate(270) translate(-32, -31.9335)" points="32 1 35.6412358 4.64123582 60.3587642 29.3587642 64 33 56.7175284 40.2824716 37.1491555 20.713411 37.1494851 62.8670134 26.8505149 62.8670134 26.8498558 20.713411 10.9237075 36.6412358 7.28247163 40.2824716 0 33"></polygon>
</g>
</symbol>
<symbol id="menu" viewBox="0 0 64 64">
<g stroke="none" stroke-width="1" fill="none" fill-rule="evenodd">
<rect fill="currentColor" x="0" y="10" width="64" height="9"></rect>
<rect fill="currentColor" x="0" y="28" width="64" height="9"></rect>
<rect fill="currentColor" x="0" y="46" width="64" height="9"></rect>
</g>
</symbol>
</svg>