<svg xmlns="http://www.w3.org/2000/svg" xmlns:xlink="http://www.w3.org/1999/xlink">
  <symbol id="up" viewBox="0 0 60 60" fill="currentColor">
    <path d="M32.4253837,0.889663152 L32.6516504,1.09834957 L58.9016504,27.3483496 C60.3661165,28.8128157 60.3661165,31.1871843 58.9016504,32.6516504 C57.5104076,34.0428932 55.2979778,34.1124554 53.8246163,32.8603368 L53.5983496,32.6516504 L33.7488,12.8022 L33.75,56.25 C33.75,58.3210678 32.0710678,60 30,60 C28.0189786,60 26.3967354,58.4638881 26.2594156,56.5178097 L26.25,56.25 L26.2482,12.804 L6.40165043,32.6516504 C5.01040764,34.0428932 2.79797778,34.1124554 1.32461628,32.8603368 L1.09834957,32.6516504 C-0.292893219,31.2604076 -0.362455358,29.0479778 0.889663152,27.5746163 L1.09834957,27.3483496 L27.3483496,1.09834957 C28.6623011,-0.215601953 30.7087312,-0.35064697 32.1732478,0.693214518 L32.4253837,0.889663152 Z"></path>
  </symbol>

  <symbol id="right" viewBox="0 0 60 60" fill="currentColor">
    <path d="M32.4253837,0.889663152 L32.6516504,1.09834957 L58.9016504,27.3483496 C60.2928932,28.7395924 60.3624554,30.9520222 59.1103368,32.4253837 L58.9016504,32.6516504 L32.6516504,58.9016504 C31.1871843,60.3661165 28.8128157,60.3661165 27.3483496,58.9016504 C25.9571068,57.5104076 25.8875446,55.2979778 27.1396632,53.8246163 L27.3483496,53.5983496 L47.1966,33.7488 L3.75,33.75 C1.67893219,33.75 0,32.0710678 0,30 C0,28.0189786 1.53611187,26.3967354 3.48219031,26.2594156 L3.75,26.25 L47.1966,26.25 L27.3483496,6.40165043 C25.9571068,5.01040764 25.8875446,2.79797778 27.1396632,1.32461628 L27.3483496,1.09834957 C28.6623011,-0.215601953 30.7087312,-0.35064697 32.1732478,0.693214518 L32.4253837,0.889663152 Z"></path>
  </symbol>

  <symbol id="menu" viewBox="0 0 60 60" fill="currentColor">
    <path d="M57,27 C58.6568542,27 60,28.3431458 60,30 C60,31.5848171 58.7711105,32.8826117 57.2142477,32.9924675 L57,33 L3,33 C1.34314575,33 0,31.6568542 0,30 C0,28.4151829 1.2288895,27.1173883 2.78575225,27.0075325 L3,27 L57,27 Z"></path>
    <path d="M57,9 C58.6568542,9 60,10.3431458 60,12 C60,13.5848171 58.7711105,14.8826117 57.2142477,14.9924675 L57,15 L3,15 C1.34314575,15 0,13.6568542 0,12 C0,10.4151829 1.2288895,9.1173883 2.78575225,9.00753247 L3,9 L57,9 Z"></path>
    <path d="M57,45 C58.6568542,45 60,46.3431458 60,48 C60,49.5848171 58.7711105,50.8826117 57.2142477,50.9924675 L57,51 L3,51 C1.34314575,51 0,49.6568542 0,48 C0,46.4151829 1.2288895,45.1173883 2.78575225,45.0075325 L3,45 L57,45 Z"></path>
  </symbol>

  <symbol id="left" viewBox="0 0 60 60" fill="currentColor">
    <path d="M32.6516504,1.09834957 C34.0428932,2.48959236 34.1124554,4.70202222 32.8603368,6.17538372 L32.6516504,6.40165043 L12.8022,26.25 L56.25,26.25 C58.3210678,26.25 60,27.9289322 60,30 C60,31.9810214 58.4638881,33.6032646 56.5178097,33.7405844 L56.25,33.75 L12.8022,33.7488 L32.6516504,53.5983496 C34.0428932,54.9895924 34.1124554,57.2020222 32.8603368,58.6753837 L32.6516504,58.9016504 C31.2604076,60.2928932 29.0479778,60.3624554 27.5746163,59.1103368 L27.3483496,58.9016504 L1.09834957,32.6516504 C-0.292893219,31.2604076 -0.362455358,29.0479778 0.889663152,27.5746163 L1.09834957,27.3483496 L27.3483496,1.09834957 C28.8128157,-0.366116524 31.1871843,-0.366116524 32.6516504,1.09834957 Z"></path>
  </symbol>

  <symbol id="down" viewBox="0 0 60 60" fill="currentColor">
    <path d="M30,0 C31.9810214,0 33.6032646,1.53611187 33.7405844,3.48219031 L33.75,3.75 L33.7488,47.1966 L53.5983496,27.3483496 C55.0628157,25.8838835 57.4371843,25.8838835 58.9016504,27.3483496 C60.2928932,28.7395924 60.3624554,30.9520222 59.1103368,32.4253837 L58.9016504,32.6516504 L32.6516504,58.9016504 C31.2604076,60.2928932 29.0479778,60.3624554 27.5746163,59.1103368 L27.3483496,58.9016504 L1.09834957,32.6516504 C-0.366116524,31.1871843 -0.366116524,28.8128157 1.09834957,27.3483496 C2.48959236,25.9571068 4.70202222,25.8875446 6.17538372,27.1396632 L6.40165043,27.3483496 L26.2482,47.1948 L26.25,3.75 C26.25,1.67893219 27.9289322,0 30,0 Z"></path>
  </symbol>

  <symbol id="cross" viewBox="0 0 60 60" fill="currentColor">
    <path d="M7.0575814,1.01675789 L7.31617192,1.25525665 L30,23.939 L52.6838281,1.25525665 C54.3575036,-0.418418884 57.0710678,-0.418418884 58.7447433,1.25525665 C60.3347351,2.84524841 60.4142347,5.37373969 58.9832421,7.0575814 L58.7447433,7.31617192 L36.061,30 L58.7447433,52.6838281 C60.4184189,54.3575036 60.4184189,57.0710678 58.7447433,58.7447433 C57.1547516,60.3347351 54.6262603,60.4142347 52.9424186,58.9832421 L52.6838281,58.7447433 L30,36.061 L7.31617192,58.7447433 C5.64249638,60.4184189 2.92893219,60.4184189 1.25525665,58.7447433 C-0.334735107,57.1547516 -0.414234695,54.6262603 1.01675789,52.9424186 L1.25525665,52.6838281 L23.939,30 L1.25525665,7.31617192 C-0.418418884,5.64249638 -0.418418884,2.92893219 1.25525665,1.25525665 C2.84524841,-0.334735107 5.37373969,-0.414234695 7.0575814,1.01675789 Z"></path>
  </symbol>

</svg>
